<svg width="25" height="24" viewBox="0 0 25 24" fill="none" xmlns="http://www.w3.org/2000/svg">
<path fill-rule="evenodd" clip-rule="evenodd" d="M11.2196 1.76532C11.9613 1.14724 13.0387 1.14724 13.7804 1.76532L21.4206 8.13213C22.1045 8.70212 22.5 9.54646 22.5 10.4368V19C22.5 20.6569 21.1569 22 19.5 22H16C15.1716 22 14.5 21.3285 14.5 20.5V14H10.5V20.5C10.5 21.3285 9.82843 22 9 22H5.5C3.84315 22 2.5 20.6569 2.5 19V10.4368C2.5 9.54646 2.89547 8.70212 3.57945 8.13214L11.2196 1.76532ZM20.1402 9.66858L12.5 3.30176L4.85982 9.66858C4.63182 9.85857 4.5 10.14 4.5 10.4368V19C4.5 19.5523 4.94772 20 5.5 20H8.5V14C8.5 12.8955 9.39543 12 10.5 12H14.5C15.6046 12 16.5 12.8955 16.5 14V20H19.5C20.0523 20 20.5 19.5523 20.5 19V10.4368C20.5 10.14 20.3682 9.85857 20.1402 9.66858Z" fill="#1B1B1B"/>
</svg>
