<svg width="200" height="30" xmlns="http://www.w3.org/2000/svg" xmlns:xlink="http://www.w3.org/1999/xlink" viewBox="0 0 66.45 9.2"><defs><style>.cls-1{fill:url(#Degradado_sin_nombre_454);}</style><linearGradient id="Degradado_sin_nombre_454" y1="4.6" x2="66.45" y2="4.6" gradientUnits="userSpaceOnUse"><stop offset="0.12" stop-color="#ee1e52"/><stop offset="0.64" stop-color="#552470"/></linearGradient></defs><g id="Capa_2" data-name="Capa 2"><g id="Capa_1-2" data-name="Capa 1"><path class="cls-1" d="M18.56,5.23a2.45,2.45,0,0,0-.74-1.87,2.94,2.94,0,0,0-2.1-.7,2.87,2.87,0,0,0-2.23.81,3,3,0,0,0-.75,2.16,2.7,2.7,0,0,0,.9,2.22A3.67,3.67,0,0,0,16,8.59a7.94,7.94,0,0,0,1.24-.09,3.69,3.69,0,0,0,1-.28V7a3.65,3.65,0,0,1-.81.21,5.28,5.28,0,0,1-1,.09A3.35,3.35,0,0,1,15.15,7a1.08,1.08,0,0,1-.62-.79h4Zm-1.68-.1H14.53a1.19,1.19,0,0,1,.28-.88,1.31,1.31,0,0,1,1-.28,1.17,1.17,0,0,1,.85.25.86.86,0,0,1,.25.66ZM24.42,3.2a3.49,3.49,0,0,0-2.07-.54,7.41,7.41,0,0,0-1.27.11,4.6,4.6,0,0,0-1,.28V4.29A6.2,6.2,0,0,1,22,4,2.2,2.2,0,0,1,23,4.18a.68.68,0,0,1,.29.62v.13H21.74a2.72,2.72,0,0,0-1.78.5,1.68,1.68,0,0,0-.59,1.37,1.73,1.73,0,0,0,.27,1,1.68,1.68,0,0,0,.74.6,2.54,2.54,0,0,0,1,.19,3.86,3.86,0,0,0,1.21-.16,2.13,2.13,0,0,0,.8-.44l.09.48h1.69V4.92A2,2,0,0,0,24.42,3.2ZM23.33,6.85a1.73,1.73,0,0,1-.54.4,2,2,0,0,1-.8.15,1.05,1.05,0,0,1-.67-.18.61.61,0,0,1-.22-.49c0-.46.29-.68.86-.68h1.37Zm4.85,1.73a1.85,1.85,0,0,1-1.34-.41,1.8,1.8,0,0,1-.41-1.31V.37h1.93v6.3a.49.49,0,0,0,.12.38.48.48,0,0,0,.34.1,2,2,0,0,0,.57-.08v1.3a2.21,2.21,0,0,1-.54.16A4.08,4.08,0,0,1,28.18,8.58Zm4.61,0A2,2,0,0,1,31.23,8a2.13,2.13,0,0,1-.5-1.49V4.23H30V2.77h.76V1.58l1.94-.51v1.7h1.38L34,4.23H32.67V6.42a.68.68,0,0,0,.2.57,1,1,0,0,0,.61.16A2.25,2.25,0,0,0,34.19,7V8.34A3.59,3.59,0,0,1,32.79,8.58Zm2.86-.12V.37h1.93V3.19a2.59,2.59,0,0,1,.8-.39,3.47,3.47,0,0,1,1-.15,2.29,2.29,0,0,1,1.68.54,2.3,2.3,0,0,1,.53,1.66V8.46H39.69V5a1,1,0,0,0-.2-.7,1.07,1.07,0,0,0-.74-.2,1.63,1.63,0,0,0-.63.14,1.82,1.82,0,0,0-.54.36V8.46Zm10.2.12a3.48,3.48,0,0,1-2.38-.75,2.74,2.74,0,0,1-.86-2.22,2.73,2.73,0,0,1,.89-2.23,3.64,3.64,0,0,1,2.38-.73A5.77,5.77,0,0,1,47,2.74a3.86,3.86,0,0,1,.89.29V4.4a3.63,3.63,0,0,0-1.57-.32A2.12,2.12,0,0,0,45,4.41a1.45,1.45,0,0,0-.43,1.2A1.49,1.49,0,0,0,45,6.78a1.9,1.9,0,0,0,1.3.37,3.55,3.55,0,0,0,1.6-.36V8.22a3.57,3.57,0,0,1-.93.27A6.28,6.28,0,0,1,45.85,8.58Zm8.52-5.16a3.36,3.36,0,0,0-2.43-.77,3.34,3.34,0,0,0-2.41.77,2.9,2.9,0,0,0-.79,2.2,2.94,2.94,0,0,0,.78,2.2,3.35,3.35,0,0,0,2.42.76,3.37,3.37,0,0,0,2.44-.76,2.94,2.94,0,0,0,.78-2.2A2.9,2.9,0,0,0,54.37,3.42ZM52.9,6.73a1.18,1.18,0,0,1-1,.34A1.15,1.15,0,0,1,51,6.73a1.64,1.64,0,0,1-.29-1.11A1.67,1.67,0,0,1,51,4.5a1.18,1.18,0,0,1,.94-.34,1.21,1.21,0,0,1,1,.34,1.67,1.67,0,0,1,.29,1.12A1.64,1.64,0,0,1,52.9,6.73Zm3.41,1.73V2.77h1.84l.06.53a5.32,5.32,0,0,1,.92-.42,4.88,4.88,0,0,1,1.11-.23V4.1c-.21,0-.44.06-.69.12s-.49.11-.72.18a3.68,3.68,0,0,0-.58.23V8.46ZM66.45,5.22a2.45,2.45,0,0,0-.74-1.87,2.94,2.94,0,0,0-2.1-.7,2.86,2.86,0,0,0-2.23.81,3,3,0,0,0-.75,2.16,2.7,2.7,0,0,0,.9,2.22,3.67,3.67,0,0,0,2.39.74,7.94,7.94,0,0,0,1.24-.09,3.69,3.69,0,0,0,1-.28V7a3.65,3.65,0,0,1-.81.21,5.36,5.36,0,0,1-1,.09A3.35,3.35,0,0,1,63,7a1.08,1.08,0,0,1-.62-.79h4Zm-1.68-.1H62.42a1.24,1.24,0,0,1,.27-.88,1.35,1.35,0,0,1,1-.28,1.17,1.17,0,0,1,.85.25.86.86,0,0,1,.25.66ZM11.59.74H9.66V8.47h1.93ZM9.2,5.57V3.64H0V5.57ZM5.57,0H3.64V9.2H5.57Z"/></g></g></svg>