<svg width="21" height="20" viewBox="0 0 21 20" fill="none" xmlns="http://www.w3.org/2000/svg">
<path fill-rule="evenodd" clip-rule="evenodd" d="M6.5 6C6.5 3.79086 8.29086 2 10.5 2C12.3638 2 13.9299 3.27477 14.374 5H16.417C15.941 2.16229 13.473 0 10.5 0C7.18629 0 4.5 2.68629 4.5 6C4.5 7.91121 5.3936 9.61372 6.78579 10.7125C3.10205 12.187 0.5 15.7896 0.5 20H2.5C2.5 15.5817 6.08172 12 10.5 12C10.8387 12 11.1724 12.021 11.5 12.0619V9.87398C11.1804 9.95625 10.8453 10 10.5 10C8.29086 10 6.5 8.20914 6.5 6ZM17.046 15.4H19.3815C20.0962 16.7771 20.5 18.3414 20.5 20H18.5C18.5 18.2878 17.9621 16.7012 17.046 15.4ZM16.9142 7.58579C16.1332 6.80474 14.8668 6.80474 14.0858 7.58579C13.3047 8.36683 13.3047 9.63317 14.0858 10.4142L17 13.3284L19.9142 10.4142C20.6953 9.63317 20.6953 8.36683 19.9142 7.58579C19.1332 6.80474 17.8668 6.80474 17.0858 7.58579L17 7.67157L16.9142 7.58579Z" fill="#1B1B1B"/>
</svg>
