<svg width="21" height="20" viewBox="0 0 21 20" fill="none" xmlns="http://www.w3.org/2000/svg">
<path fill-rule="evenodd" clip-rule="evenodd" d="M6.5 6C6.5 3.79086 8.29086 2 10.5 2C12.7091 2 14.5 3.79086 14.5 6C14.5 8.20914 12.7091 10 10.5 10C8.29086 10 6.5 8.20914 6.5 6ZM14.2142 10.7125C15.6064 9.61372 16.5 7.91121 16.5 6C16.5 2.68629 13.8137 0 10.5 0C7.18629 0 4.5 2.68629 4.5 6C4.5 7.91121 5.3936 9.61372 6.78579 10.7125C3.10205 12.187 0.5 15.7896 0.5 20H2.5C2.5 15.5817 6.08172 12 10.5 12C14.9183 12 18.5 15.5817 18.5 20H20.5C20.5 15.7896 17.8979 12.187 14.2142 10.7125Z" fill="#1B1B1B"/>
</svg>
