<svg width="23" height="22" viewBox="0 0 23 22" fill="none" xmlns="http://www.w3.org/2000/svg">
<path d="M16.0831 8.50651C16.4457 8.50651 16.8002 8.39899 17.1017 8.19754C17.4032 7.99609 17.6382 7.70976 17.7769 7.37476C17.9157 7.03977 17.952 6.67114 17.8812 6.31551C17.8105 5.95988 17.6359 5.63321 17.3795 5.37682C17.1231 5.12042 16.7964 4.94581 16.4408 4.87507C16.0852 4.80433 15.7166 4.84064 15.3816 4.9794C15.0466 5.11816 14.7602 5.35314 14.5588 5.65463C14.3573 5.95612 14.2498 6.31058 14.2498 6.67318C14.2498 7.15941 14.443 7.62572 14.7868 7.96954C15.1306 8.31336 15.5969 8.50651 16.0831 8.50651ZM2.98398 12.7598C3.16562 12.8179 3.34073 12.8947 3.50648 12.989C4.07658 13.3225 4.72516 13.4983 5.38564 13.4983C6.04612 13.4983 6.69471 13.3225 7.26481 12.989C7.6233 12.7883 8.02728 12.6829 8.43814 12.6829C8.849 12.6829 9.25299 12.7883 9.61147 12.989L9.80398 13.0807C10.3602 13.3515 10.9742 13.4822 11.5925 13.4614C12.2108 13.4406 12.8147 13.269 13.3515 12.9615C13.71 12.7608 14.114 12.6554 14.5248 12.6554C14.9357 12.6554 15.3397 12.7608 15.6981 12.9615C16.2791 13.2935 16.9357 13.4703 17.6048 13.4748C18.2505 13.4681 18.8829 13.2911 19.4381 12.9615C19.6039 12.8672 19.779 12.7904 19.9606 12.7323C20.0961 12.723 20.2278 12.6837 20.3463 12.6172C20.4647 12.5508 20.5669 12.4588 20.6454 12.3481C20.724 12.2373 20.777 12.1104 20.8005 11.9767C20.824 11.8429 20.8175 11.7056 20.7815 11.5747C20.7455 11.4437 20.6808 11.3224 20.5922 11.2195C20.5035 11.1167 20.3931 11.0347 20.269 10.9797C20.1448 10.9247 20.01 10.898 19.8742 10.9015C19.7385 10.905 19.6052 10.9386 19.484 10.9998C19.1641 11.0991 18.8566 11.2344 18.5673 11.4032C18.2747 11.5721 17.9427 11.6611 17.6048 11.6611C17.2669 11.6611 16.9349 11.5721 16.6423 11.4032C16.0073 11.0449 15.2906 10.8567 14.5615 10.8567C13.8324 10.8567 13.1157 11.0449 12.4806 11.4032C12.3944 11.4453 12.3056 11.4821 12.2148 11.5132L13.6448 10.0832C13.6776 10.0407 13.7053 9.99457 13.7273 9.94568C13.7688 9.90059 13.8056 9.85145 13.8373 9.79901C13.8416 9.74103 13.8416 9.68282 13.8373 9.62484C13.8425 9.56691 13.8425 9.50862 13.8373 9.45068C13.8417 9.39577 13.8417 9.34059 13.8373 9.28568C13.8425 9.22774 13.8425 9.16945 13.8373 9.11151C13.8102 9.05762 13.7796 9.00557 13.7456 8.95568C13.7218 8.90288 13.691 8.85354 13.654 8.80901L10.8398 5.75651C10.7658 5.6758 10.6791 5.60768 10.5831 5.55484C10.5193 5.54639 10.4545 5.54639 10.3906 5.55484C10.339 5.54646 10.2864 5.54646 10.2348 5.55484C10.1128 5.50574 9.9807 5.48687 9.84981 5.49984L6.60481 6.70984C6.37634 6.79259 6.19007 6.96265 6.08694 7.18267C5.98381 7.40268 5.97225 7.65464 6.05481 7.88318C6.13755 8.11165 6.30761 8.29791 6.52763 8.40105C6.74765 8.50418 6.99961 8.51574 7.22814 8.43318L9.91398 7.45234L11.7473 9.39568L10.0056 11.1373C9.42209 10.9105 8.79551 10.8159 8.171 10.8602C7.54648 10.9046 6.93958 11.0869 6.39397 11.394C6.10134 11.563 5.76938 11.6519 5.43148 11.6519C5.09357 11.6519 4.76161 11.563 4.46898 11.394C4.17969 11.2253 3.87216 11.0899 3.55231 10.9907C3.43502 10.9469 3.31001 10.9276 3.18499 10.934C3.05997 10.9404 2.93759 10.9724 2.82538 11.0279C2.71318 11.0834 2.61354 11.1613 2.5326 11.2568C2.45165 11.3523 2.39113 11.4634 2.35476 11.5832C2.31838 11.7029 2.30693 11.8289 2.3211 11.9533C2.33527 12.0777 2.37477 12.1978 2.43716 12.3064C2.49955 12.4149 2.58351 12.5095 2.68386 12.5843C2.78421 12.6592 2.89883 12.7127 3.02064 12.7415L2.98398 12.7598ZM19.484 15.5923C19.1641 15.6916 18.8566 15.8269 18.5673 15.9957C18.2747 16.1646 17.9427 16.2536 17.6048 16.2536C17.2669 16.2536 16.9349 16.1646 16.6423 15.9957C16.0073 15.6374 15.2906 15.4492 14.5615 15.4492C13.8324 15.4492 13.1157 15.6374 12.4806 15.9957C12.1855 16.1671 11.8503 16.2575 11.509 16.2575C11.1677 16.2575 10.8324 16.1671 10.5373 15.9957C9.9023 15.6374 9.18556 15.4492 8.45648 15.4492C7.72739 15.4492 7.01065 15.6374 6.37564 15.9957C6.083 16.1646 5.75105 16.2536 5.41314 16.2536C5.07523 16.2536 4.74328 16.1646 4.45064 15.9957C4.16136 15.8269 3.85383 15.6916 3.53398 15.5923C3.41669 15.5486 3.29168 15.5293 3.16666 15.5357C3.04164 15.5421 2.91925 15.5741 2.80705 15.6296C2.69485 15.6851 2.5952 15.763 2.51426 15.8585C2.43332 15.954 2.3728 16.065 2.33642 16.1848C2.30005 16.3046 2.2886 16.4306 2.30277 16.555C2.31694 16.6793 2.35644 16.7995 2.41883 16.908C2.48122 17.0166 2.56518 17.1112 2.66553 17.186C2.76588 17.2608 2.88049 17.3143 3.00231 17.3432C3.18395 17.4012 3.35906 17.478 3.52481 17.5723C4.09491 17.9058 4.74349 18.0816 5.40398 18.0816C6.06446 18.0816 6.71304 17.9058 7.28314 17.5723C7.64163 17.3716 8.04562 17.2662 8.45648 17.2662C8.86733 17.2662 9.27132 17.3716 9.62981 17.5723C10.2048 17.9011 10.8557 18.0741 11.5181 18.0741C12.1805 18.0741 12.8315 17.9011 13.4065 17.5723C13.765 17.3716 14.169 17.2662 14.5798 17.2662C14.9907 17.2662 15.3947 17.3716 15.7531 17.5723C16.3341 17.9044 16.9907 18.0811 17.6598 18.0857C18.3055 18.079 18.9379 17.9019 19.4931 17.5723C19.6589 17.478 19.834 17.4012 20.0156 17.3432C20.1312 17.3083 20.2388 17.2509 20.3322 17.1745C20.4256 17.098 20.503 17.0039 20.56 16.8975C20.6171 16.7911 20.6526 16.6745 20.6646 16.5543C20.6765 16.4342 20.6647 16.3129 20.6298 16.1973C20.5949 16.0818 20.5376 15.9742 20.4611 15.8808C20.3846 15.7874 20.2905 15.71 20.1841 15.653C20.0777 15.5959 19.9611 15.5604 19.841 15.5484C19.7208 15.5365 19.5995 15.5483 19.484 15.5832V15.5923Z" fill="black"/>
</svg>
