<svg width="171" height="25" viewBox="0 0 171 25" fill="none" xmlns="http://www.w3.org/2000/svg">
<path d="M18.24 20.256C19.1573 20.256 19.616 20.672 19.616 21.504V22.752C19.616 23.584 19.1573 24 18.24 24H12.64C11.7227 24 11.264 23.584 11.264 22.752V21.504C11.264 20.672 11.7227 20.256 12.64 20.256H13.216V15.488C13.216 13.952 13.0453 12.8853 12.704 12.288C12.3627 11.6693 11.7653 11.36 10.912 11.36C10.2933 11.36 9.70667 11.5627 9.152 11.968C8.59733 12.352 8.14933 12.864 7.808 13.504C7.488 14.144 7.328 14.8267 7.328 15.552V20.256H7.936C8.34133 20.256 8.672 20.3627 8.928 20.576C9.184 20.768 9.312 21.0773 9.312 21.504V22.752C9.312 23.1787 9.184 23.4987 8.928 23.712C8.672 23.904 8.34133 24 7.936 24H2.336C1.90933 24 1.568 23.904 1.312 23.712C1.056 23.4987 0.928 23.1787 0.928 22.752V21.504C0.928 21.0773 1.056 20.768 1.312 20.576C1.568 20.3627 1.90933 20.256 2.336 20.256H2.912V4.064H2.336C1.90933 4.064 1.568 3.968 1.312 3.776C1.056 3.56267 0.928 3.24267 0.928 2.816V1.568C0.928 1.14133 1.056 0.831999 1.312 0.639999C1.568 0.426666 1.89867 0.32 2.304 0.32H5.856C6.28267 0.32 6.63467 0.458666 6.912 0.735998C7.18933 1.01333 7.328 1.36533 7.328 1.792V11.2C7.75467 10.176 8.416 9.33333 9.312 8.672C10.2293 8.01067 11.1787 7.68 12.16 7.68C13.9093 7.68 15.264 8.256 16.224 9.408C17.184 10.5387 17.664 12.1493 17.664 14.24V20.256H18.24ZM36.7255 15.2C36.7255 15.52 36.6935 16.096 36.6295 16.928H26.3575C26.5282 18.08 26.9335 18.9867 27.5735 19.648C28.2135 20.3093 29.0562 20.64 30.1015 20.64C30.7842 20.64 31.3282 20.544 31.7335 20.352C32.1602 20.1387 32.5762 19.7973 32.9815 19.328C33.4082 18.8587 33.8668 18.624 34.3575 18.624C34.8268 18.624 35.2322 18.7627 35.5735 19.04C35.9148 19.3173 36.0855 19.6907 36.0855 20.16C36.0855 20.672 35.9042 21.184 35.5415 21.696C34.9655 22.4853 34.2082 23.1253 33.2695 23.616C32.3522 24.0853 31.2322 24.32 29.9095 24.32C28.2455 24.32 26.7948 23.968 25.5575 23.264C24.3415 22.56 23.4028 21.5787 22.7415 20.32C22.1015 19.04 21.7815 17.568 21.7815 15.904C21.7815 14.2187 22.1015 12.7573 22.7415 11.52C23.4028 10.2827 24.3202 9.33333 25.4935 8.672C26.6882 8.01067 28.0642 7.68 29.6215 7.68C30.9442 7.68 32.1388 7.968 33.2055 8.544C34.2722 9.09867 35.1255 9.94133 35.7655 11.072C36.4055 12.2027 36.7255 13.5787 36.7255 15.2ZM29.5255 11.04C27.7762 11.04 26.7415 12.0853 26.4215 14.176H32.2135V13.824C32.2135 12.9067 31.9682 12.2133 31.4775 11.744C31.0082 11.2747 30.3575 11.04 29.5255 11.04ZM54.093 20.256C54.4983 20.256 54.829 20.3627 55.085 20.576C55.341 20.768 55.469 21.0773 55.469 21.504V22.752C55.469 23.1787 55.341 23.4987 55.085 23.712C54.829 23.904 54.4983 24 54.093 24H50.541C50.1357 24 49.7837 23.8613 49.485 23.584C49.2077 23.2853 49.069 22.9333 49.069 22.528V20.992C48.6423 21.9733 47.9917 22.7733 47.117 23.392C46.2637 24.0107 45.3463 24.32 44.365 24.32C42.893 24.32 41.6983 23.8827 40.781 23.008C39.885 22.1333 39.437 20.9813 39.437 19.552C39.437 17.9307 39.9597 16.736 41.005 15.968C42.0503 15.1787 43.629 14.784 45.741 14.784C46.7223 14.784 47.8317 14.9013 49.069 15.136V13.952C49.069 13.0347 48.8237 12.3307 48.333 11.84C47.8637 11.3493 47.181 11.104 46.285 11.104C45.709 11.104 45.2823 11.2 45.005 11.392C44.9623 12.0533 44.717 12.608 44.269 13.056C43.821 13.4827 43.2663 13.696 42.605 13.696C41.8797 13.696 41.293 13.4827 40.845 13.056C40.397 12.608 40.173 12.032 40.173 11.328C40.173 10.2187 40.7383 9.33333 41.869 8.672C42.9997 8.01067 44.4717 7.68 46.285 7.68C48.653 7.68 50.445 8.288 51.661 9.504C52.877 10.6987 53.485 12.384 53.485 14.56V20.256H54.093ZM45.709 21.056C46.5623 21.056 47.309 20.704 47.949 20C48.6103 19.2747 48.9837 18.4107 49.069 17.408C48.365 17.28 47.4797 17.216 46.413 17.216C45.517 17.216 44.8663 17.3867 44.461 17.728C44.0557 18.048 43.853 18.5707 43.853 19.296C43.853 19.8293 44.0237 20.256 44.365 20.576C44.7063 20.896 45.1543 21.056 45.709 21.056ZM58.8673 24C58.4406 24 58.0993 23.904 57.8433 23.712C57.5873 23.4987 57.4593 23.1787 57.4593 22.752V21.504C57.4593 21.0773 57.5873 20.768 57.8433 20.576C58.0993 20.3627 58.4406 20.256 58.8673 20.256H59.4433V4.064H58.8673C58.4406 4.064 58.0993 3.968 57.8433 3.776C57.5873 3.56267 57.4593 3.24267 57.4593 2.816V1.568C57.4593 1.14133 57.5873 0.831999 57.8433 0.639999C58.0993 0.426666 58.4299 0.32 58.8353 0.32H62.3873C62.8139 0.32 63.1659 0.458666 63.4433 0.735998C63.7206 1.01333 63.8593 1.36533 63.8593 1.792V20.256H64.4673C64.8726 20.256 65.2033 20.3627 65.4593 20.576C65.7153 20.768 65.8433 21.0773 65.8433 21.504V22.752C65.8433 23.1787 65.7153 23.4987 65.4593 23.712C65.2033 23.904 64.8726 24 64.4673 24H58.8673ZM79.6453 18.432C80.1359 18.432 80.5626 18.592 80.9253 18.912C81.2879 19.2107 81.4693 19.584 81.4693 20.032C81.4693 20.544 81.3093 21.0453 80.9893 21.536C79.7306 23.392 78.1519 24.32 76.2533 24.32C72.2426 24.32 70.2373 22.0693 70.2373 17.568V11.68H68.8613C68.4346 11.68 68.0826 11.552 67.8053 11.296C67.5279 11.0187 67.3893 10.6667 67.3893 10.24V9.44C67.3893 9.01333 67.5279 8.672 67.8053 8.416C68.0826 8.13867 68.4346 8 68.8613 8H70.2373V5.12C70.2373 4.69333 70.3653 4.34133 70.6213 4.064C70.8986 3.78667 71.2506 3.648 71.6773 3.648H73.2133C73.6399 3.648 73.9813 3.78667 74.2373 4.064C74.5146 4.34133 74.6533 4.69333 74.6533 5.12V8H78.1733C78.5999 8 78.9519 8.13867 79.2293 8.416C79.5066 8.672 79.6453 9.01333 79.6453 9.44V10.24C79.6453 10.6667 79.5066 11.0187 79.2293 11.296C78.9519 11.552 78.5999 11.68 78.1733 11.68H74.6533V18.144C74.6533 18.9333 74.8133 19.552 75.1333 20C75.4533 20.4267 75.8906 20.64 76.4453 20.64C76.8933 20.64 77.2453 20.5333 77.5013 20.32C77.7786 20.1067 78.0666 19.744 78.3653 19.232C78.5573 18.9547 78.7386 18.752 78.9093 18.624C79.1013 18.496 79.3466 18.432 79.6453 18.432ZM100.459 20.256C101.376 20.256 101.835 20.672 101.835 21.504V22.752C101.835 23.584 101.376 24 100.459 24H94.8588C93.9414 24 93.4828 23.584 93.4828 22.752V21.504C93.4828 20.672 93.9414 20.256 94.8588 20.256H95.4348V15.488C95.4348 13.952 95.2641 12.8853 94.9228 12.288C94.5814 11.6693 93.9841 11.36 93.1308 11.36C92.5121 11.36 91.9254 11.5627 91.3708 11.968C90.8161 12.352 90.3681 12.864 90.0268 13.504C89.7068 14.144 89.5468 14.8267 89.5468 15.552V20.256H90.1548C90.5601 20.256 90.8908 20.3627 91.1468 20.576C91.4028 20.768 91.5308 21.0773 91.5308 21.504V22.752C91.5308 23.1787 91.4028 23.4987 91.1468 23.712C90.8908 23.904 90.5601 24 90.1548 24H84.5548C84.1281 24 83.7868 23.904 83.5308 23.712C83.2748 23.4987 83.1468 23.1787 83.1468 22.752V21.504C83.1468 21.0773 83.2748 20.768 83.5308 20.576C83.7868 20.3627 84.1281 20.256 84.5548 20.256H85.1308V4.064H84.5548C84.1281 4.064 83.7868 3.968 83.5308 3.776C83.2748 3.56267 83.1468 3.24267 83.1468 2.816V1.568C83.1468 1.14133 83.2748 0.831999 83.5308 0.639999C83.7868 0.426666 84.1174 0.32 84.5228 0.32H88.0748C88.5014 0.32 88.8534 0.458666 89.1308 0.735998C89.4081 1.01333 89.5468 1.36533 89.5468 1.792V11.2C89.9734 10.176 90.6348 9.33333 91.5308 8.672C92.4481 8.01067 93.3974 7.68 94.3788 7.68C96.1281 7.68 97.4828 8.256 98.4428 9.408C99.4028 10.5387 99.8828 12.1493 99.8828 14.24V20.256H100.459ZM116.576 18.624C117.046 18.624 117.451 18.7627 117.792 19.04C118.134 19.3173 118.304 19.6907 118.304 20.16C118.304 20.672 118.123 21.184 117.76 21.696C117.184 22.4853 116.427 23.1253 115.488 23.616C114.571 24.0853 113.451 24.32 112.128 24.32C110.464 24.32 109.014 23.968 107.776 23.264C106.56 22.56 105.622 21.5787 104.96 20.32C104.32 19.04 104 17.568 104 15.904C104 14.2187 104.331 12.7573 104.992 11.52C105.675 10.2827 106.614 9.33333 107.808 8.672C109.024 8.01067 110.4 7.68 111.936 7.68C113.195 7.68 114.326 7.904 115.328 8.352C116.352 8.8 117.152 9.41867 117.728 10.208C118.304 10.976 118.592 11.84 118.592 12.8C118.592 13.5893 118.336 14.2293 117.824 14.72C117.312 15.2107 116.651 15.456 115.84 15.456C115.03 15.456 114.379 15.232 113.888 14.784C113.398 14.3147 113.152 13.7173 113.152 12.992C113.152 12.544 113.227 12.16 113.376 11.84C112.971 11.52 112.427 11.36 111.744 11.36C110.678 11.36 109.867 11.744 109.312 12.512C108.779 13.28 108.512 14.4 108.512 15.872C108.512 17.3227 108.843 18.4853 109.504 19.36C110.187 20.2133 111.126 20.64 112.32 20.64C113.003 20.64 113.547 20.544 113.952 20.352C114.379 20.1387 114.795 19.7973 115.2 19.328C115.627 18.8587 116.086 18.624 116.576 18.624ZM129.123 24.32C126.648 24.32 124.718 23.6053 123.331 22.176C121.944 20.7253 121.251 18.72 121.251 16.16C121.251 13.536 121.976 11.4667 123.427 9.952C124.878 8.43733 126.862 7.68 129.379 7.68C131.854 7.68 133.784 8.40533 135.171 9.856C136.558 11.2853 137.251 13.2693 137.251 15.808C137.251 18.432 136.526 20.512 135.075 22.048C133.624 23.5627 131.64 24.32 129.123 24.32ZM129.155 20.64C131.544 20.64 132.739 19.04 132.739 15.84C132.739 12.8533 131.608 11.36 129.347 11.36C128.195 11.36 127.31 11.776 126.691 12.608C126.072 13.4187 125.763 14.592 125.763 16.128C125.763 17.6 126.051 18.72 126.627 19.488C127.203 20.256 128.046 20.64 129.155 20.64ZM151.073 7.68C152.097 7.68 152.876 7.95733 153.409 8.512C153.942 9.04533 154.209 9.77067 154.209 10.688C154.209 11.4987 153.953 12.1707 153.441 12.704C152.929 13.2373 152.268 13.504 151.457 13.504C150.817 13.504 150.273 13.3227 149.825 12.96C149.398 12.5973 149.121 12.1067 148.993 11.488C148.268 11.7227 147.66 12.2453 147.169 13.056C146.678 13.8453 146.433 14.7413 146.433 15.744V20.256H147.617C148.534 20.256 148.993 20.672 148.993 21.504V22.752C148.993 23.584 148.534 24 147.617 24H141.409C141.004 24 140.673 23.904 140.417 23.712C140.161 23.4987 140.033 23.1787 140.033 22.752V21.504C140.033 21.0773 140.161 20.768 140.417 20.576C140.673 20.3627 141.004 20.256 141.409 20.256H142.017V11.744H141.409C141.004 11.744 140.673 11.648 140.417 11.456C140.161 11.2427 140.033 10.9227 140.033 10.496V9.248C140.033 8.416 140.492 8 141.409 8H144.961C145.388 8 145.74 8.13867 146.017 8.416C146.294 8.69333 146.433 9.04533 146.433 9.472V11.744C146.796 10.4853 147.393 9.49333 148.225 8.768C149.078 8.04267 150.028 7.68 151.073 7.68ZM170.851 15.2C170.851 15.52 170.819 16.096 170.755 16.928H160.483C160.653 18.08 161.059 18.9867 161.699 19.648C162.339 20.3093 163.181 20.64 164.227 20.64C164.909 20.64 165.453 20.544 165.859 20.352C166.285 20.1387 166.701 19.7973 167.107 19.328C167.533 18.8587 167.992 18.624 168.483 18.624C168.952 18.624 169.357 18.7627 169.699 19.04C170.04 19.3173 170.211 19.6907 170.211 20.16C170.211 20.672 170.029 21.184 169.667 21.696C169.091 22.4853 168.333 23.1253 167.395 23.616C166.477 24.0853 165.357 24.32 164.035 24.32C162.371 24.32 160.92 23.968 159.683 23.264C158.467 22.56 157.528 21.5787 156.867 20.32C156.227 19.04 155.907 17.568 155.907 15.904C155.907 14.2187 156.227 12.7573 156.867 11.52C157.528 10.2827 158.445 9.33333 159.619 8.672C160.813 8.01067 162.189 7.68 163.747 7.68C165.069 7.68 166.264 7.968 167.331 8.544C168.397 9.09867 169.251 9.94133 169.891 11.072C170.531 12.2027 170.851 13.5787 170.851 15.2ZM163.651 11.04C161.901 11.04 160.867 12.0853 160.547 14.176H166.339V13.824C166.339 12.9067 166.093 12.2133 165.603 11.744C165.133 11.2747 164.483 11.04 163.651 11.04Z" fill="white"/>
</svg>
