<svg width="129" height="19" viewBox="0 0 129 19" fill="none" xmlns="http://www.w3.org/2000/svg">
<path d="M13.68 15.192C14.368 15.192 14.712 15.504 14.712 16.128V17.064C14.712 17.688 14.368 18 13.68 18H9.48C8.792 18 8.448 17.688 8.448 17.064V16.128C8.448 15.504 8.792 15.192 9.48 15.192H9.912V11.616C9.912 10.464 9.784 9.664 9.528 9.216C9.272 8.752 8.824 8.52 8.184 8.52C7.72 8.52 7.28 8.672 6.864 8.976C6.448 9.264 6.112 9.648 5.856 10.128C5.616 10.608 5.496 11.12 5.496 11.664V15.192H5.952C6.256 15.192 6.504 15.272 6.696 15.432C6.888 15.576 6.984 15.808 6.984 16.128V17.064C6.984 17.384 6.888 17.624 6.696 17.784C6.504 17.928 6.256 18 5.952 18H1.752C1.432 18 1.176 17.928 0.984 17.784C0.792 17.624 0.696 17.384 0.696 17.064V16.128C0.696 15.808 0.792 15.576 0.984 15.432C1.176 15.272 1.432 15.192 1.752 15.192H2.184V3.048H1.752C1.432 3.048 1.176 2.976 0.984 2.832C0.792 2.672 0.696 2.432 0.696 2.112V1.176C0.696 0.855999 0.792 0.624 0.984 0.48C1.176 0.32 1.424 0.24 1.728 0.24H4.392C4.712 0.24 4.976 0.343999 5.184 0.551999C5.392 0.759999 5.496 1.024 5.496 1.344V8.4C5.816 7.632 6.312 7 6.984 6.504C7.672 6.008 8.384 5.76 9.12 5.76C10.432 5.76 11.448 6.192 12.168 7.056C12.888 7.904 13.248 9.112 13.248 10.68V15.192H13.68ZM27.5441 11.4C27.5441 11.64 27.5201 12.072 27.4721 12.696H19.7681C19.8961 13.56 20.2001 14.24 20.6801 14.736C21.1601 15.232 21.7921 15.48 22.5761 15.48C23.0881 15.48 23.4961 15.408 23.8001 15.264C24.1201 15.104 24.4321 14.848 24.7361 14.496C25.0561 14.144 25.4001 13.968 25.7681 13.968C26.1201 13.968 26.4241 14.072 26.6801 14.28C26.9361 14.488 27.0641 14.768 27.0641 15.12C27.0641 15.504 26.9281 15.888 26.6561 16.272C26.2241 16.864 25.6561 17.344 24.9521 17.712C24.2641 18.064 23.4241 18.24 22.4321 18.24C21.1841 18.24 20.0961 17.976 19.1681 17.448C18.2561 16.92 17.5521 16.184 17.0561 15.24C16.5761 14.28 16.3361 13.176 16.3361 11.928C16.3361 10.664 16.5761 9.568 17.0561 8.64C17.5521 7.712 18.2401 7 19.1201 6.504C20.0161 6.008 21.0481 5.76 22.2161 5.76C23.2081 5.76 24.1041 5.976 24.9041 6.408C25.7041 6.824 26.3441 7.456 26.8241 8.304C27.3041 9.152 27.5441 10.184 27.5441 11.4ZM22.1441 8.28C20.8321 8.28 20.0561 9.064 19.8161 10.632H24.1601V10.368C24.1601 9.68 23.9761 9.16 23.6081 8.808C23.2561 8.456 22.7681 8.28 22.1441 8.28ZM40.5698 15.192C40.8738 15.192 41.1218 15.272 41.3138 15.432C41.5058 15.576 41.6018 15.808 41.6018 16.128V17.064C41.6018 17.384 41.5058 17.624 41.3138 17.784C41.1218 17.928 40.8738 18 40.5698 18H37.9058C37.6018 18 37.3378 17.896 37.1138 17.688C36.9058 17.464 36.8018 17.2 36.8018 16.896V15.744C36.4818 16.48 35.9938 17.08 35.3378 17.544C34.6978 18.008 34.0098 18.24 33.2738 18.24C32.1698 18.24 31.2738 17.912 30.5858 17.256C29.9138 16.6 29.5778 15.736 29.5778 14.664C29.5778 13.448 29.9698 12.552 30.7538 11.976C31.5378 11.384 32.7218 11.088 34.3058 11.088C35.0418 11.088 35.8738 11.176 36.8018 11.352V10.464C36.8018 9.776 36.6178 9.248 36.2498 8.88C35.8978 8.512 35.3858 8.328 34.7138 8.328C34.2818 8.328 33.9618 8.4 33.7538 8.544C33.7218 9.04 33.5378 9.456 33.2018 9.792C32.8658 10.112 32.4498 10.272 31.9538 10.272C31.4098 10.272 30.9698 10.112 30.6338 9.792C30.2978 9.456 30.1298 9.024 30.1298 8.496C30.1298 7.664 30.5538 7 31.4018 6.504C32.2498 6.008 33.3538 5.76 34.7138 5.76C36.4898 5.76 37.8338 6.216 38.7458 7.128C39.6578 8.024 40.1138 9.288 40.1138 10.92V15.192H40.5698ZM34.2818 15.792C34.9218 15.792 35.4818 15.528 35.9618 15C36.4578 14.456 36.7378 13.808 36.8018 13.056C36.2738 12.96 35.6098 12.912 34.8098 12.912C34.1378 12.912 33.6498 13.04 33.3458 13.296C33.0418 13.536 32.8898 13.928 32.8898 14.472C32.8898 14.872 33.0178 15.192 33.2738 15.432C33.5298 15.672 33.8658 15.792 34.2818 15.792ZM44.1504 18C43.8304 18 43.5744 17.928 43.3824 17.784C43.1904 17.624 43.0944 17.384 43.0944 17.064V16.128C43.0944 15.808 43.1904 15.576 43.3824 15.432C43.5744 15.272 43.8304 15.192 44.1504 15.192H44.5824V3.048H44.1504C43.8304 3.048 43.5744 2.976 43.3824 2.832C43.1904 2.672 43.0944 2.432 43.0944 2.112V1.176C43.0944 0.855999 43.1904 0.624 43.3824 0.48C43.5744 0.32 43.8224 0.24 44.1264 0.24H46.7904C47.1104 0.24 47.3744 0.343999 47.5824 0.551999C47.7904 0.759999 47.8944 1.024 47.8944 1.344V15.192H48.3504C48.6544 15.192 48.9024 15.272 49.0944 15.432C49.2864 15.576 49.3824 15.808 49.3824 16.128V17.064C49.3824 17.384 49.2864 17.624 49.0944 17.784C48.9024 17.928 48.6544 18 48.3504 18H44.1504ZM59.7339 13.824C60.1019 13.824 60.4219 13.944 60.6939 14.184C60.9659 14.408 61.1019 14.688 61.1019 15.024C61.1019 15.408 60.9819 15.784 60.7419 16.152C59.7979 17.544 58.6139 18.24 57.1899 18.24C54.1819 18.24 52.6779 16.552 52.6779 13.176V8.76H51.6459C51.3259 8.76 51.0619 8.664 50.8539 8.472C50.6459 8.264 50.5419 8 50.5419 7.68V7.08C50.5419 6.76 50.6459 6.504 50.8539 6.312C51.0619 6.104 51.3259 6 51.6459 6H52.6779V3.84C52.6779 3.52 52.7739 3.256 52.9659 3.048C53.1739 2.84 53.4379 2.736 53.7579 2.736H54.9099C55.2299 2.736 55.4859 2.84 55.6779 3.048C55.8859 3.256 55.9899 3.52 55.9899 3.84V6H58.6299C58.9499 6 59.2139 6.104 59.4219 6.312C59.6299 6.504 59.7339 6.76 59.7339 7.08V7.68C59.7339 8 59.6299 8.264 59.4219 8.472C59.2139 8.664 58.9499 8.76 58.6299 8.76H55.9899V13.608C55.9899 14.2 56.1099 14.664 56.3499 15C56.5899 15.32 56.9179 15.48 57.3339 15.48C57.6699 15.48 57.9339 15.4 58.1259 15.24C58.3339 15.08 58.5499 14.808 58.7739 14.424C58.9179 14.216 59.0539 14.064 59.1819 13.968C59.3259 13.872 59.5099 13.824 59.7339 13.824ZM75.3441 15.192C76.0321 15.192 76.3761 15.504 76.3761 16.128V17.064C76.3761 17.688 76.0321 18 75.3441 18H71.1441C70.4561 18 70.1121 17.688 70.1121 17.064V16.128C70.1121 15.504 70.4561 15.192 71.1441 15.192H71.5761V11.616C71.5761 10.464 71.4481 9.664 71.1921 9.216C70.9361 8.752 70.4881 8.52 69.8481 8.52C69.3841 8.52 68.9441 8.672 68.5281 8.976C68.1121 9.264 67.7761 9.648 67.5201 10.128C67.2801 10.608 67.1601 11.12 67.1601 11.664V15.192H67.6161C67.9201 15.192 68.1681 15.272 68.3601 15.432C68.5521 15.576 68.6481 15.808 68.6481 16.128V17.064C68.6481 17.384 68.5521 17.624 68.3601 17.784C68.1681 17.928 67.9201 18 67.6161 18H63.4161C63.0961 18 62.8401 17.928 62.6481 17.784C62.4561 17.624 62.3601 17.384 62.3601 17.064V16.128C62.3601 15.808 62.4561 15.576 62.6481 15.432C62.8401 15.272 63.0961 15.192 63.4161 15.192H63.8481V3.048H63.4161C63.0961 3.048 62.8401 2.976 62.6481 2.832C62.4561 2.672 62.3601 2.432 62.3601 2.112V1.176C62.3601 0.855999 62.4561 0.624 62.6481 0.48C62.8401 0.32 63.0881 0.24 63.3921 0.24H66.0561C66.3761 0.24 66.6401 0.343999 66.8481 0.551999C67.0561 0.759999 67.1601 1.024 67.1601 1.344V8.4C67.4801 7.632 67.9761 7 68.6481 6.504C69.3361 6.008 70.0481 5.76 70.7841 5.76C72.0961 5.76 73.1121 6.192 73.8321 7.056C74.5521 7.904 74.9121 9.112 74.9121 10.68V15.192H75.3441ZM87.4322 13.968C87.7842 13.968 88.0882 14.072 88.3442 14.28C88.6002 14.488 88.7282 14.768 88.7282 15.12C88.7282 15.504 88.5922 15.888 88.3202 16.272C87.8882 16.864 87.3202 17.344 86.6162 17.712C85.9282 18.064 85.0882 18.24 84.0962 18.24C82.8482 18.24 81.7602 17.976 80.8322 17.448C79.9202 16.92 79.2162 16.184 78.7202 15.24C78.2402 14.28 78.0002 13.176 78.0002 11.928C78.0002 10.664 78.2482 9.568 78.7442 8.64C79.2562 7.712 79.9602 7 80.8562 6.504C81.7682 6.008 82.8002 5.76 83.9522 5.76C84.8962 5.76 85.7442 5.928 86.4962 6.264C87.2642 6.6 87.8642 7.064 88.2962 7.656C88.7282 8.232 88.9442 8.88 88.9442 9.6C88.9442 10.192 88.7522 10.672 88.3682 11.04C87.9842 11.408 87.4882 11.592 86.8802 11.592C86.2722 11.592 85.7842 11.424 85.4162 11.088C85.0482 10.736 84.8642 10.288 84.8642 9.744C84.8642 9.408 84.9202 9.12 85.0322 8.88C84.7282 8.64 84.3202 8.52 83.8082 8.52C83.0082 8.52 82.4002 8.808 81.9842 9.384C81.5842 9.96 81.3842 10.8 81.3842 11.904C81.3842 12.992 81.6322 13.864 82.1282 14.52C82.6402 15.16 83.3442 15.48 84.2402 15.48C84.7522 15.48 85.1602 15.408 85.4642 15.264C85.7842 15.104 86.0962 14.848 86.4002 14.496C86.7202 14.144 87.0642 13.968 87.4322 13.968ZM96.8423 18.24C94.9863 18.24 93.5383 17.704 92.4983 16.632C91.4583 15.544 90.9383 14.04 90.9383 12.12C90.9383 10.152 91.4823 8.6 92.5703 7.464C93.6583 6.328 95.1463 5.76 97.0343 5.76C98.8903 5.76 100.338 6.304 101.378 7.392C102.418 8.464 102.938 9.952 102.938 11.856C102.938 13.824 102.394 15.384 101.306 16.536C100.218 17.672 98.7303 18.24 96.8423 18.24ZM96.8663 15.48C98.6583 15.48 99.5543 14.28 99.5543 11.88C99.5543 9.64 98.7063 8.52 97.0103 8.52C96.1463 8.52 95.4823 8.832 95.0183 9.456C94.5543 10.064 94.3223 10.944 94.3223 12.096C94.3223 13.2 94.5383 14.04 94.9703 14.616C95.4023 15.192 96.0343 15.48 96.8663 15.48ZM113.305 5.76C114.073 5.76 114.657 5.968 115.057 6.384C115.457 6.784 115.657 7.328 115.657 8.016C115.657 8.624 115.465 9.128 115.081 9.528C114.697 9.928 114.201 10.128 113.593 10.128C113.113 10.128 112.705 9.992 112.369 9.72C112.049 9.448 111.841 9.08 111.745 8.616C111.201 8.792 110.745 9.184 110.377 9.792C110.009 10.384 109.825 11.056 109.825 11.808V15.192H110.713C111.401 15.192 111.745 15.504 111.745 16.128V17.064C111.745 17.688 111.401 18 110.713 18H106.057C105.753 18 105.505 17.928 105.313 17.784C105.121 17.624 105.025 17.384 105.025 17.064V16.128C105.025 15.808 105.121 15.576 105.313 15.432C105.505 15.272 105.753 15.192 106.057 15.192H106.513V8.808H106.057C105.753 8.808 105.505 8.736 105.313 8.592C105.121 8.432 105.025 8.192 105.025 7.872V6.936C105.025 6.312 105.369 6 106.057 6H108.721C109.041 6 109.305 6.104 109.513 6.312C109.721 6.52 109.825 6.784 109.825 7.104V8.808C110.097 7.864 110.545 7.12 111.169 6.576C111.809 6.032 112.521 5.76 113.305 5.76ZM128.138 11.4C128.138 11.64 128.114 12.072 128.066 12.696H120.362C120.49 13.56 120.794 14.24 121.274 14.736C121.754 15.232 122.386 15.48 123.17 15.48C123.682 15.48 124.09 15.408 124.394 15.264C124.714 15.104 125.026 14.848 125.33 14.496C125.65 14.144 125.994 13.968 126.362 13.968C126.714 13.968 127.018 14.072 127.274 14.28C127.53 14.488 127.658 14.768 127.658 15.12C127.658 15.504 127.522 15.888 127.25 16.272C126.818 16.864 126.25 17.344 125.546 17.712C124.858 18.064 124.018 18.24 123.026 18.24C121.778 18.24 120.69 17.976 119.762 17.448C118.85 16.92 118.146 16.184 117.65 15.24C117.17 14.28 116.93 13.176 116.93 11.928C116.93 10.664 117.17 9.568 117.65 8.64C118.146 7.712 118.834 7 119.714 6.504C120.61 6.008 121.642 5.76 122.81 5.76C123.802 5.76 124.698 5.976 125.498 6.408C126.298 6.824 126.938 7.456 127.418 8.304C127.898 9.152 128.138 10.184 128.138 11.4ZM122.738 8.28C121.426 8.28 120.65 9.064 120.41 10.632H124.754V10.368C124.754 9.68 124.57 9.16 124.202 8.808C123.85 8.456 123.362 8.28 122.738 8.28Z" fill="#0047FF"/>
</svg>
